# xmcd
#
# Track frame offsets:
#	150
#	17536
#	33198
#	51126
#	76732
#	95091
#	112927
#	131320
#	147184
#	166981
#	185871
#	203371
#	216736
#	234773
#	250488
#
# Disc length: 3557 seconds
#
# Revision: 0
# Processed by: cddbd v1.5.2PL0 Copyright (c) Steve Scherf et al.
# Submitted via: dBpowerAMP V4.0
#
DISCID=c30de30f
DTITLE=Trupa Autentic - Casa , dulce casa
DYEAR=2008
DGENRE=ETNO
TTITLE0=Casa , dulce casa
TTITLE1=Haida buna seara
TTITLE2=Doi ochi negrii
TTITLE3=In bratele tale
TTITLE4=Hopa si iara
TTITLE5=Trec tiganii trec
TTITLE6=Tineretea mi s-a dus cu anii
TTITLE7=M-am jurat ca n-oi mai bea
TTITLE8=Floraresele
TTITLE9=Zece vieti
TTITLE10=Merit eu ?
TTITLE11=Ciobanasul
TTITLE12=Unde e Targovistea ?
TTITLE13=Morarita ( feat. Mirabela Dauer )
TTITLE14=Ioane , Ioane ( feat. Mirabela Dauer )
EXTD=
EXTT0=
EXTT1=
EXTT2=
EXTT3=
EXTT4=
EXTT5=
EXTT6=
EXTT7=
EXTT8=
EXTT9=
EXTT10=
EXTT11=
EXTT12=
EXTT13=
EXTT14=
PLAYORDER=
